<svg width="2802" height="68" viewBox="0 0 2802 68" fill="none" xmlns="http://www.w3.org/2000/svg">
<path d="M26.4999 5.67918L39.5 5.18371L13.7246 62.7491L6.28317e-05 62.7491L13.7246 34.3059L26.4999 5.67918Z" fill="#A3A3A3"/>
<path d="M81.9999 5.67918L95 5.18371L69.2246 62.7491L55.5001 62.7491L69.2246 34.3059L81.9999 5.67918Z" fill="#A3A3A3"/>
<path d="M137.5 5.67918L150.5 5.18371L124.724 62.7491L111 62.7491L124.724 34.3059L137.5 5.67918Z" fill="#A3A3A3"/>
<path d="M193 5.67918L206 5.18371L180.224 62.7491L166.5 62.7491L180.224 34.3059L193 5.67918Z" fill="#A3A3A3"/>
<path d="M248.5 5.67918L261.5 5.18371L235.724 62.7491L222 62.7491L235.724 34.3059L248.5 5.67918Z" fill="#A3A3A3"/>
<path d="M304 5.67918L317 5.18371L291.224 62.7491L277.5 62.7491L291.224 34.3059L304 5.67918Z" fill="#A3A3A3"/>
<path d="M359.499 5.67918L372.5 5.18371L346.724 62.7491L333 62.7491L346.724 34.3059L359.499 5.67918Z" fill="#A3A3A3"/>
<path d="M414.999 5.67918L428 5.18371L402.224 62.7491L388.5 62.7491L402.224 34.3059L414.999 5.67918Z" fill="#A3A3A3"/>
<path d="M470.499 5.67918L483.5 5.18371L457.724 62.7491L444 62.7491L457.724 34.3059L470.499 5.67918Z" fill="#A3A3A3"/>
<path d="M525.999 5.67918L539 5.18371L513.224 62.7491L499.5 62.7491L513.224 34.3059L525.999 5.67918Z" fill="#A3A3A3"/>
<path d="M581.499 5.67918L594.499 5.18371L568.724 62.7491L554.999 62.7491L568.724 34.3059L581.499 5.67918Z" fill="#A3A3A3"/>
<path d="M636.999 5.67918L649.999 5.18371L624.224 62.7491L610.499 62.7491L624.224 34.3059L636.999 5.67918Z" fill="#A3A3A3"/>
<path d="M692.499 5.67918L705.499 5.18371L679.724 62.7491L665.999 62.7491L679.724 34.3059L692.499 5.67918Z" fill="#A3A3A3"/>
<path d="M747.999 5.67918L760.999 5.18371L735.224 62.7491L721.499 62.7491L735.224 34.3059L747.999 5.67918Z" fill="#A3A3A3"/>
<path d="M803.499 5.67918L816.499 5.18371L790.724 62.7491L776.999 62.7491L790.724 34.3059L803.499 5.67918Z" fill="#A3A3A3"/>
<path d="M858.999 5.67918L871.999 5.18371L846.224 62.7491L832.499 62.7491L846.224 34.3059L858.999 5.67918Z" fill="#A3A3A3"/>
<path d="M914.499 5.67918L927.499 5.18371L901.724 62.7491L887.999 62.7491L901.724 34.3059L914.499 5.67918Z" fill="#A3A3A3"/>
<path d="M969.999 5.67918L982.999 5.18371L957.223 62.7491L943.499 62.7491L957.223 34.3059L969.999 5.67918Z" fill="#A3A3A3"/>
<path d="M1025.5 5.67918L1038.5 5.18371L1012.72 62.7491L998.999 62.7491L1012.72 34.3059L1025.5 5.67918Z" fill="#A3A3A3"/>
<path d="M1081 5.67918L1094 5.18371L1068.22 62.7491L1054.5 62.7491L1068.22 34.3059L1081 5.67918Z" fill="#A3A3A3"/>
<path d="M1136.5 5.67918L1149.5 5.18371L1123.72 62.7491L1110 62.7491L1123.72 34.3059L1136.5 5.67918Z" fill="#A3A3A3"/>
<path d="M1192 5.67918L1205 5.18371L1179.22 62.7491L1165.5 62.7491L1179.22 34.3059L1192 5.67918Z" fill="#A3A3A3"/>
<path d="M1247.5 5.67918L1260.5 5.18371L1234.72 62.7491L1221 62.7491L1234.72 34.3059L1247.5 5.67918Z" fill="#A3A3A3"/>
<path d="M1303 5.67918L1316 5.18371L1290.22 62.7491L1276.5 62.7491L1290.22 34.3059L1303 5.67918Z" fill="#A3A3A3"/>
<path d="M1358.5 5.67918L1371.5 5.18371L1345.72 62.7491L1332 62.7491L1345.72 34.3059L1358.5 5.67918Z" fill="#A3A3A3"/>
<path d="M1414 5.67918L1427 5.18371L1401.22 62.7491L1387.5 62.7491L1401.22 34.3059L1414 5.67918Z" fill="#A3A3A3"/>
<path d="M1469.5 5.67918L1482.5 5.18371L1456.72 62.7491L1443 62.7491L1456.72 34.3059L1469.5 5.67918Z" fill="#A3A3A3"/>
<path d="M1525 5.67918L1538 5.18371L1512.22 62.7491L1498.5 62.7491L1512.22 34.3059L1525 5.67918Z" fill="#A3A3A3"/>
<path d="M1580.5 5.67918L1593.5 5.18371L1567.72 62.7491L1554 62.7491L1567.72 34.3059L1580.5 5.67918Z" fill="#A3A3A3"/>
<path d="M1636 5.67918L1649 5.18371L1623.22 62.7491L1609.5 62.7491L1623.22 34.3059L1636 5.67918Z" fill="#A3A3A3"/>
<path d="M1691.5 5.67918L1704.5 5.18371L1678.72 62.7491L1665 62.7491L1678.72 34.3059L1691.5 5.67918Z" fill="#A3A3A3"/>
<path d="M1747 5.67918L1760 5.18371L1734.22 62.7491L1720.5 62.7491L1734.22 34.3059L1747 5.67918Z" fill="#A3A3A3"/>
<path d="M1802.5 5.67918L1815.5 5.18371L1789.72 62.7491L1776 62.7491L1789.72 34.3059L1802.5 5.67918Z" fill="#A3A3A3"/>
<path d="M1858 5.67918L1871 5.18371L1845.22 62.7491L1831.5 62.7491L1845.22 34.3059L1858 5.67918Z" fill="#A3A3A3"/>
<path d="M1913.5 5.67918L1926.5 5.18371L1900.72 62.7491L1887 62.7491L1900.72 34.3059L1913.5 5.67918Z" fill="#A3A3A3"/>
<path d="M1969 5.67918L1982 5.18371L1956.22 62.7491L1942.5 62.7491L1956.22 34.3059L1969 5.67918Z" fill="#A3A3A3"/>
<path d="M2024.5 5.67918L2037.5 5.18371L2011.72 62.7491L1998 62.7491L2011.72 34.3059L2024.5 5.67918Z" fill="#A3A3A3"/>
<path d="M2080 5.67918L2093 5.18371L2067.22 62.7491L2053.5 62.7491L2067.22 34.3059L2080 5.67918Z" fill="#A3A3A3"/>
<path d="M2135.5 5.67918L2148.5 5.18371L2122.72 62.7491L2109 62.7491L2122.72 34.3059L2135.5 5.67918Z" fill="#A3A3A3"/>
<path d="M2191 5.67918L2204 5.18371L2178.22 62.7491L2164.5 62.7491L2178.22 34.3059L2191 5.67918Z" fill="#A3A3A3"/>
<path d="M2246.5 5.67918L2259.5 5.18371L2233.72 62.7491L2220 62.7491L2233.72 34.3059L2246.5 5.67918Z" fill="#A3A3A3"/>
<path d="M2302 5.67918L2315 5.18371L2289.22 62.7491L2275.5 62.7491L2289.22 34.3059L2302 5.67918Z" fill="#A3A3A3"/>
<path d="M2357.5 5.67918L2370.5 5.18371L2344.72 62.7491L2331 62.7491L2344.72 34.3059L2357.5 5.67918Z" fill="#A3A3A3"/>
<path d="M2413 5.67918L2426 5.18371L2400.22 62.7491L2386.5 62.7491L2400.22 34.3059L2413 5.67918Z" fill="#A3A3A3"/>
<path d="M2468.5 5.67918L2481.5 5.18371L2455.72 62.7491L2442 62.7491L2455.72 34.3059L2468.5 5.67918Z" fill="#A3A3A3"/>
<path d="M2524 5.67918L2537 5.18371L2511.22 62.7491L2497.5 62.7491L2511.22 34.3059L2524 5.67918Z" fill="#A3A3A3"/>
<path d="M2579.5 5.67918L2592.5 5.18371L2566.72 62.7491L2553 62.7491L2566.72 34.3059L2579.5 5.67918Z" fill="#A3A3A3"/>
<path d="M2635 5.67918L2648 5.18371L2622.22 62.7491L2608.5 62.7491L2622.22 34.3059L2635 5.67918Z" fill="#A3A3A3"/>
<path d="M2690.5 5.67918L2703.5 5.18371L2677.72 62.7491L2664 62.7491L2677.72 34.3059L2690.5 5.67918Z" fill="#A3A3A3"/>
<path d="M2746 5.67918L2759 5.18371L2733.22 62.7491L2719.5 62.7491L2733.22 34.3059L2746 5.67918Z" fill="#A3A3A3"/>
<path d="M2788.99 30.2827L2800 30.2827L2786 64.1112L2773.49 64.1112L2788.99 30.2827Z" fill="#A3A3A3"/>
</svg>
