<svg width="30" height="22" viewBox="0 0 30 22" fill="none" xmlns="http://www.w3.org/2000/svg">
<path d="M15 0L27.5367 9.1936C28.3161 9.76513 27.9118 11 26.9454 11H3.05464C2.08818 11 1.68391 9.76513 2.46328 9.1936L15 0Z" fill="#57A7F1"/>
<path d="M6 20.8129V10H24V20.8129C24 21.6198 23.5366 21.8135 23.1089 21.9426C22.6812 22.0717 19.5446 21.9426 19.1881 21.9426C18.6245 21.9426 17.7624 21.9426 17.5842 20.8129C17.5085 20.3336 17.7624 19.5218 17.5842 16.6169C17.5644 16.2946 17.5842 15.9713 17.0495 15.4871C16.6931 15.1644 15.4455 15.1644 14.9109 15.1644C14.3762 15.1644 13.4851 15.1644 12.9505 15.4871C12.4873 15.7668 12.4241 16.5188 12.4161 16.6136L12.4158 16.6169C12.2376 18.7149 12.5584 19.7478 12.4158 20.6515C12.2885 21.4585 12.0594 21.6198 11.5248 21.7812C10.9901 21.9426 7.31881 21.9103 6.89109 21.7812C6.46337 21.6521 6 21.2971 6 20.8129Z" fill="#57A7F1"/>
</svg>
